<svg xmlns="http://www.w3.org/2000/svg" xmlns:xlink="http://www.w3.org/1999/xlink"><symbol id="icon-arrow-left"><path fill="none" d="M6.319 11.034l-5-5 5-5" stroke="#222"/></symbol><symbol id="icon-arrow-right"><path fill="none" d="M1.25 11.034l5-5-5-5" stroke="#222"/></symbol><symbol id="icon-arrow" viewBox="0 0 10 6"><path d="M1 1l4 4 4-4" stroke="#000" stroke-linecap="round"/></symbol><symbol id="icon-cart" viewBox="0 0 19 24"><path fill="#000" fill-rule="evenodd" clip-rule="evenodd" d="M9.895.752c-2.6 0-4.779 1.955-4.779 4.45v.684H4.094a2.5 2.5 0 00-2.497 2.372l-.65 12.686a2.5 2.5 0 002.496 2.628h12.903a2.5 2.5 0 002.497-2.628l-.65-12.686a2.5 2.5 0 00-2.497-2.372h-1.023v-.685c0-2.494-2.178-4.45-4.778-4.45zm4.778 8.362a.854.854 0 01-.5 1.55.856.856 0 01-.5-1.55V6.886H6.116v2.228a.855.855 0 01-.5 1.55.856.856 0 01-.5-1.55V6.886H4.094a1.5 1.5 0 00-1.499 1.423l-.65 12.686a1.5 1.5 0 001.498 1.577h12.903a1.5 1.5 0 001.498-1.577l-.65-12.686a1.5 1.5 0 00-1.498-1.423h-1.023v2.228zm-1-3.228v-.685c0-1.868-1.653-3.45-3.778-3.45-2.126 0-3.779 1.582-3.779 3.45v.685h7.557z"/></symbol><symbol id="icon-close" viewBox="0 0 18 18"><path d="M17 1L1 17m16 0L1 1" stroke="#9D9D9D" stroke-width=".8"/></symbol><symbol id="icon-facebook" viewBox="0 0 17 17"><path d="M15.454 0H1.545C.692 0 0 .692 0 1.545v13.91C0 16.308.692 17 1.545 17h7.728v-6.954H6.955V7.727h2.318V6.482c0-2.356 1.148-3.391 3.107-3.391.938 0 1.434.07 1.669.101V5.41h-1.336c-.831 0-1.122.439-1.122 1.328v.99h2.437l-.33 2.319H11.59V17h3.864c.853 0 1.545-.692 1.545-1.546V1.545A1.544 1.544 0 0015.454 0z"/></symbol><symbol id="icon-insta" viewBox="0 0 17 17"><path d="M4.957 0A4.964 4.964 0 000 4.96v7.083A4.964 4.964 0 004.96 17h7.083A4.964 4.964 0 0017 12.04V4.957A4.964 4.964 0 0012.04 0H4.957zm8.501 2.833a.709.709 0 110 1.418.709.709 0 010-1.418zM8.5 4.25a4.254 4.254 0 014.25 4.25 4.254 4.254 0 01-4.25 4.25A4.254 4.254 0 014.25 8.5 4.254 4.254 0 018.5 4.25zm0 1.417a2.833 2.833 0 100 5.666 2.833 2.833 0 000-5.666z"/></symbol><symbol id="icon-minus" viewBox="0 0 9 3"><path d="M8.287 2.574H.7V.765h7.587v1.809z"/></symbol><symbol id="icon-plus" viewBox="0 0 12 12"><path d="M6.524 11.086h-1.43v-4.51H.54V5.102h4.554V.57h1.43v4.532h4.554v1.474H6.524v4.51z"/></symbol><symbol id="icon-search" viewBox="0 0 20 20"><path clip-rule="evenodd" d="M13.224 3.097A7.16 7.16 0 113.097 13.224 7.16 7.16 0 0113.224 3.097zm.728 10.813a8.16 8.16 0 10-.042.042l-.7.7 5.049 5.05a1.02 1.02 0 101.442-1.443l-5.049-5.05-.7.7z"/></symbol><symbol id="icon-telegram" viewBox="0 0 19 17"><path d="M.393 7.855l4.324 1.614 1.674 5.383a.509.509 0 00.809.243l2.41-1.965a.72.72 0 01.877-.024l4.348 3.156a.51.51 0 00.798-.308L18.818.634a.51.51 0 00-.682-.58L.388 6.902a.51.51 0 00.005.954zm5.729.755l8.451-5.206c.152-.093.308.112.178.233l-6.975 6.484a1.446 1.446 0 00-.448.865l-.238 1.76c-.031.236-.362.26-.426.032L5.75 9.567a.851.851 0 01.372-.957z"/></symbol><symbol id="icon-twitter" viewBox="0 0 18 15"><path d="M17.062 2.007a7.009 7.009 0 01-2.01.55A3.51 3.51 0 0016.59.62a6.989 6.989 0 01-2.222.85 3.5 3.5 0 00-5.965 3.194 9.94 9.94 0 01-7.215-3.659c-.3.519-.473 1.12-.473 1.76a3.5 3.5 0 001.557 2.914 3.492 3.492 0 01-1.586-.438v.045a3.502 3.502 0 002.808 3.432 3.526 3.526 0 01-1.58.06 3.502 3.502 0 003.27 2.43A7.025 7.025 0 010 12.659a9.9 9.9 0 005.365 1.574c6.44 0 9.96-5.334 9.96-9.96 0-.15-.004-.302-.01-.452a7.116 7.116 0 001.745-1.81l.002-.003z"/></symbol><symbol id="icon-vk" viewBox="0 0 20 11"><path clip-rule="evenodd" d="M19.541.745c.14-.43 0-.745-.662-.745h-2.188c-.556 0-.812.273-.951.573 0 0-1.113 2.512-2.69 4.143-.51.473-.741.623-1.02.623-.138 0-.347-.15-.347-.58V.745c0-.515-.154-.745-.618-.745H7.627c-.348 0-.557.24-.557.466 0 .488.788.6.87 1.975v2.984c0 .654-.128.773-.406.773-.742 0-2.546-2.523-3.617-5.41C3.707.227 3.497 0 2.938 0H.75C.125 0 0 .273 0 .573c0 .537.742 3.199 3.454 6.72C5.262 9.696 7.809 11 10.127 11c1.391 0 1.563-.29 1.563-.788V8.395c0-.58.132-.695.572-.695.325 0 .881.15 2.18 1.31 1.483 1.374 1.727 1.99 2.562 1.99h2.188c.625 0 .938-.29.757-.86-.197-.57-.905-1.396-1.845-2.375-.51-.558-1.275-1.16-1.507-1.46-.324-.387-.232-.558 0-.902 0 0 2.666-3.477 2.944-4.658z"/></symbol><symbol id="icon-cart-card" viewBox="0 0 511.728 511.728"><path d="m147.925 379.116c-22.357-1.142-21.936-32.588-.001-33.68 62.135.216 226.021.058 290.132.103 17.535 0 32.537-11.933 36.481-29.017l36.404-157.641c2.085-9.026-.019-18.368-5.771-25.629s-14.363-11.484-23.626-11.484c-25.791 0-244.716-.991-356.849-1.438l-17.775-65.953c-4.267-15.761-18.65-26.768-34.978-26.768h-56.942c-8.284 0-15 6.716-15 15s6.716 15 15 15h56.942c2.811 0 5.286 1.895 6.017 4.592l68.265 253.276c-12.003.436-23.183 5.318-31.661 13.92-8.908 9.04-13.692 21.006-13.471 33.695.442 25.377 21.451 46.023 46.833 46.023h21.872c-3.251 6.824-5.076 14.453-5.076 22.501 0 28.95 23.552 52.502 52.502 52.502s52.502-23.552 52.502-52.502c0-8.049-1.826-15.677-5.077-22.501h94.716c-3.248 6.822-5.073 14.447-5.073 22.493 0 28.95 23.553 52.502 52.502 52.502 28.95 0 52.503-23.553 52.503-52.502 0-8.359-1.974-16.263-5.464-23.285 5.936-1.999 10.216-7.598 10.216-14.207 0-8.284-6.716-15-15-15zm91.799 52.501c0 12.408-10.094 22.502-22.502 22.502s-22.502-10.094-22.502-22.502c0-12.401 10.084-22.491 22.483-22.501h.038c12.399.01 22.483 10.1 22.483 22.501zm167.07 22.494c-12.407 0-22.502-10.095-22.502-22.502 0-12.285 9.898-22.296 22.137-22.493h.731c12.24.197 22.138 10.208 22.138 22.493-.001 12.407-10.096 22.502-22.504 22.502zm74.86-302.233c.089.112.076.165.057.251l-15.339 66.425h-51.942l8.845-67.023 58.149.234c.089.002.142.002.23.113zm-154.645 163.66v-66.984h53.202l-8.84 66.984zm-74.382 0-8.912-66.984h53.294v66.984zm-69.053 0h-.047c-3.656-.001-6.877-2.467-7.828-5.98l-16.442-61.004h54.193l8.912 66.984zm56.149-96.983-9.021-67.799 66.306.267v67.532zm87.286 0v-67.411l66.022.266-8.861 67.145zm-126.588-67.922 9.037 67.921h-58.287l-18.38-68.194zm237.635 164.905h-36.426l8.84-66.984h48.973l-14.137 61.217c-.784 3.396-3.765 5.767-7.25 5.767z"/></symbol></svg>